# xmcd
#
# Track frame offsets:
# 150
# 24959
# 78562
# 89851
# 126160
# 150290
# 181719
# 234426
# 272328
#
# Disc length: 3992 seconds
#
#
# Revision: 0
# Processed by: cddbd v1.4PL0 Copyright (c) Steve Scherf et al.
# Submitted via: FreeRIP 2.00 
#
DISCID=610f9609
DTITLE=Miss Mickey Champion - I Am Your Living Legend
DYEAR=1900
DGENRE=Blues
TTITLE0=Intro/The Next Time I See You
TTITLE1=Since I Fell For You
TTITLE2=Rock Me Baby
TTITLE3=At Last
TTITLE4=Double Crossing Blues
TTITLE5=Misty
TTITLE6=Gambler's Blues
TTITLE7=Stormy Monday
TTITLE8=Shake, Rattle and Roll
EXTD=
EXTT0=
EXTT1=
EXTT2=
EXTT3=
EXTT4=
EXTT5=
EXTT6=
EXTT7=
EXTT8=
PLAYORDER=
